<svg version="1.1" id="Layer_1" xmlns="http://www.w3.org/2000/svg" xmlns:xlink="http://www.w3.org/1999/xlink" x="0px" y="0px"
	 width="512" height="512" viewBox="0 0 512 512" enable-background="new 0 0 512 512" xml:space="preserve">
<path fill="#000000" opacity="1.000000" stroke="none" 
	d="
M1.000000,200.000000 
	C1.000000,134.666672 1.034491,69.833267 0.903330,5.000196 
	C0.896401,1.575471 1.576367,0.903139 5.000061,0.905342 
	C172.999985,1.013444 341.000000,1.013444 508.999939,0.905342 
	C512.423645,0.903139 513.096802,1.576367 513.094604,5.000061 
	C512.986511,172.999985 512.986511,341.000000 513.094604,508.999939 
	C513.096802,512.423645 512.423645,513.096802 508.999939,513.094604 
	C341.000000,512.986511 172.999985,512.986511 5.000061,513.094604 
	C1.576367,513.096802 0.900603,512.423950 0.904512,508.999878 
	C1.021884,406.166687 1.000000,303.333344 1.000000,200.000000 
z"/>
<path fill="#B3DAFD" opacity="1.000000" stroke="none" 
	d="
M370.641418,16.407120 
	C375.753815,15.757347 380.538696,15.920862 385.314575,16.410797 
	C385.990692,18.270552 384.466492,18.935780 383.714355,19.836372 
	C369.619507,36.712765 355.616180,53.668900 341.286865,70.344681 
	C334.400421,78.358757 332.543488,86.730812 336.576355,96.622673 
	C339.709534,104.307823 342.297241,112.216393 345.089966,120.039024 
	C348.146149,128.599579 353.950073,133.884186 363.041748,135.419128 
	C372.227539,136.969986 381.402985,138.583710 390.573486,140.222885 
	C399.500458,141.818527 406.485107,138.641403 412.173096,131.825806 
	C426.154999,115.071999 440.193420,98.365273 454.256073,81.679192 
	C455.377350,80.348732 456.152252,78.562538 458.538025,77.828789 
	C464.283691,100.709312 461.908905,122.354843 450.329926,142.843735 
	C447.725403,147.452469 444.621216,151.778397 449.573639,156.719299 
	C450.205902,157.350128 450.204254,158.322739 449.513000,158.971298 
	C445.366333,162.861938 442.745056,168.238968 437.493500,171.090042 
	C436.254303,171.762802 435.786652,171.273849 435.039307,170.644821 
	C431.761871,167.886292 428.351440,168.071793 424.946655,170.340302 
	C403.991638,184.302063 381.205902,188.102737 356.741638,182.711395 
	C348.305359,180.852234 341.268402,183.528564 335.576233,189.735245 
	C331.420044,194.267120 327.581512,199.090347 323.103760,204.370483 
	C319.726074,192.095871 313.240875,182.669296 302.017700,176.565521 
	C300.950775,173.374817 303.070984,171.615295 304.586761,169.752701 
	C308.581635,164.843796 312.492340,159.848206 316.774536,155.193054 
	C322.357513,149.123825 323.203217,142.701874 320.363403,134.943985 
	C309.565033,105.444717 311.835175,76.959587 328.638855,50.188885 
	C336.621216,37.471867 347.266968,27.204416 360.405487,19.669668 
	C362.644348,18.385698 365.067139,17.959166 367.777344,17.142170 
	C368.060486,16.871531 368.240265,16.691721 368.346069,16.762249 
	C369.097443,16.817471 369.682098,16.486629 370.641418,16.407120 
z"/>
<path fill="#B3D9FD" opacity="1.000000" stroke="none" 
	d="
M139.675461,359.658600 
	C147.888016,372.601776 159.092682,379.940796 174.763947,381.109863 
	C172.076721,384.363953 170.007996,387.147522 167.655151,389.665558 
	C160.853699,396.944305 159.581741,405.178864 162.186813,414.652374 
	C172.339096,451.571747 149.561478,488.774872 112.166199,496.693146 
	C104.351936,498.347778 95.661842,498.430939 89.873100,496.895752 
	C89.733673,495.146149 91.230667,494.361603 92.126144,493.288483 
	C103.865906,479.219269 115.578751,465.126312 127.466484,451.182617 
	C131.233109,446.764496 132.046997,442.213959 129.997238,436.865295 
	C127.262711,429.729889 124.612473,422.558289 122.119736,415.335388 
	C120.444725,410.481964 117.410927,407.480042 112.266396,406.596405 
	C103.904465,405.160156 95.573463,403.542267 87.206459,402.137817 
	C82.513016,401.349976 78.798271,403.199677 75.796844,406.829987 
	C69.746841,414.147675 63.615795,421.398376 57.224163,428.842468 
	C54.036396,428.397064 54.744553,426.122864 54.931911,424.307495 
	C56.454937,409.550751 61.646751,396.185547 71.392738,384.985321 
	C78.224052,377.134613 85.341812,369.295502 96.473335,366.640411 
	C100.148552,365.776154 103.430641,366.688416 106.693153,366.978363 
	C114.828606,367.701416 121.707672,365.365631 127.468910,359.039581 
	C131.723862,356.275085 135.568634,356.471466 139.675461,359.658600 
z"/>
<path fill="#5FB6FC" opacity="1.000000" stroke="none" 
	d="
M186.357147,363.105774 
	C175.340332,368.457703 163.102997,365.559357 155.786789,356.232971 
	C148.504730,346.950134 148.589157,333.938507 156.378464,324.418182 
	C166.177231,312.441803 176.233078,300.675720 186.182083,288.822357 
	C211.749512,258.360901 237.335220,227.914810 262.870239,197.426254 
	C266.602692,192.969788 270.968933,189.608826 276.626251,188.009155 
	C282.483124,186.353058 288.143768,186.960648 293.934509,189.544464 
	C291.479645,195.962006 286.108765,200.053116 282.296112,205.338318 
	C281.052765,207.061905 279.475525,208.543137 277.995056,210.550842 
	C267.675537,220.795425 259.168274,232.145233 250.051041,242.952957 
	C226.213928,271.209869 202.523254,299.591034 178.745026,327.898254 
	C173.461365,334.188293 173.469208,335.516815 178.668793,342.393616 
	C179.785934,348.303375 181.696854,353.510406 184.843506,358.253784 
	C185.740707,359.606293 186.770187,360.965759 186.357147,363.105774 
z"/>
<path fill="#89C7FC" opacity="1.000000" stroke="none" 
	d="
M277.164673,210.201080 
	C281.944275,202.853699 287.356995,196.179245 293.874451,190.004593 
	C309.460541,196.698975 313.467133,215.714493 302.276001,229.212936 
	C287.409851,247.144104 272.367706,264.929382 257.394836,282.772034 
	C237.073990,306.987640 216.740158,331.192322 196.431183,355.417847 
	C193.733795,358.635406 190.837021,361.568237 186.557220,363.347412 
	C182.260193,357.209717 177.591232,351.280182 177.960220,343.073303 
	C184.592987,340.095581 188.472809,334.635101 192.734055,329.558289 
	C219.937866,297.147888 247.166031,264.757935 274.293945,232.283905 
	C276.856781,229.216049 279.603424,226.302582 282.008209,223.101181 
	C286.613892,216.969742 285.743774,213.901993 278.644470,211.247681 
	C278.174652,211.072037 277.746796,210.813553 277.164673,210.201080 
z"/>
<path fill="#FD4654" opacity="1.000000" stroke="none" 
	d="
M411.175354,387.872955 
	C407.503845,393.535339 407.574066,395.978394 411.801422,401.027527 
	C424.588348,416.300140 437.401337,431.550934 450.221497,446.795685 
	C454.077667,451.381134 457.565674,456.165985 460.046661,461.689514 
	C462.070282,466.194794 462.145203,469.870789 457.342590,472.617554 
	C455.924469,473.428650 454.773987,474.707703 453.180115,475.892944 
	C449.656708,477.560608 448.335266,474.906036 446.831451,473.124390 
	C433.535889,457.372131 420.325592,441.547882 407.076752,425.756256 
	C386.669647,401.432495 366.129944,377.219574 345.908112,352.741241 
	C341.218597,347.064575 337.359924,340.832367 335.807465,333.484436 
	C334.308990,326.392120 336.110840,322.155884 341.760406,319.795227 
	C345.526245,321.678772 347.786469,324.802643 350.229340,327.697449 
	C362.312561,342.016388 374.358307,356.367188 386.359009,370.755310 
	C389.309204,374.292389 392.575043,376.216797 397.541260,373.870209 
	C399.375854,373.393677 400.639069,373.937012 401.513916,374.968750 
	C404.923492,378.990021 409.030426,382.486542 411.175354,387.872955 
z"/>
<path fill="#8AC9FD" opacity="1.000000" stroke="none" 
	d="
M367.622009,16.793467 
	C358.077942,23.113497 348.159363,29.334465 340.124908,38.238976 
	C325.081268,54.911705 316.653961,74.090363 315.905396,96.691635 
	C315.435608,110.876595 317.641663,124.391838 323.087799,137.530334 
	C325.178802,142.574753 324.798157,147.959045 321.018463,152.563782 
	C314.707458,160.252335 308.435059,167.972549 301.975403,175.993805 
	C296.461334,174.017960 290.887268,172.560776 284.375427,171.846237 
	C288.048523,167.470596 291.238159,163.478134 294.632050,159.667572 
	C301.916595,151.488724 303.056610,142.629486 299.032806,132.423508 
	C279.175629,82.058029 308.349396,28.329601 361.257141,17.509314 
	C363.205261,17.110901 365.206848,16.974115 367.622009,16.793467 
z"/>
<path fill="#FA2B3A" opacity="1.000000" stroke="none" 
	d="
M341.957764,319.452942 
	C335.763641,325.523102 335.444000,333.059814 340.691345,342.151825 
	C346.393799,352.032318 354.275665,360.175415 361.451996,368.870544 
	C372.760437,382.572388 384.356995,396.035980 395.778870,409.644684 
	C406.985626,422.997070 418.125458,436.405670 429.296783,449.787811 
	C435.679749,457.434021 442.066101,465.077332 448.452728,472.720459 
	C449.516785,473.993866 450.485413,475.383362 452.529907,475.950714 
	C443.773071,484.788940 442.147186,485.038391 432.874786,476.671509 
	C423.698517,468.391357 416.533020,458.256683 408.595825,448.848450 
	C380.681976,415.761169 352.905914,382.557587 325.088440,349.389008 
	C320.576172,344.008728 316.502869,338.388214 314.624908,331.430847 
	C314.015686,329.173737 314.414490,327.682312 316.222443,326.220276 
	C320.622589,322.661987 324.951263,319.010956 329.212189,315.286774 
	C330.973633,313.747192 332.648590,313.612244 334.680237,314.604309 
	C337.235931,315.852264 339.663879,317.264038 341.957764,319.452942 
z"/>
<path fill="#FB7E86" opacity="1.000000" stroke="none" 
	d="
M411.583130,388.126892 
	C406.976532,383.543060 402.744202,378.845856 398.215515,373.969482 
	C400.935120,370.356903 402.403870,366.603210 399.080261,362.674835 
	C384.425140,345.353119 370.392242,327.502167 354.862122,310.489197 
	C355.157776,304.733337 359.508881,302.981659 363.892639,300.806305 
	C368.225403,301.600525 370.927216,304.313446 373.402924,307.262878 
	C407.342468,347.696838 441.282227,388.130646 475.172211,428.606140 
	C483.058380,438.024780 482.731323,450.232819 474.500305,457.220428 
	C467.220154,440.532654 453.691254,428.532257 442.719849,414.627899 
	C436.223816,406.395325 429.246552,398.543488 422.531830,390.481995 
	C419.593506,386.954346 416.186310,385.821838 411.583130,388.126892 
z"/>
<path fill="#FB4755" opacity="1.000000" stroke="none" 
	d="
M427.286499,495.720673 
	C418.072998,500.014160 409.283936,497.708862 402.303253,489.406769 
	C384.618774,468.374817 366.974915,447.308746 349.315094,426.256073 
	C333.046661,406.862091 316.741638,387.498627 300.528229,368.058716 
	C293.736511,359.915375 293.197754,349.727478 298.911896,341.782867 
	C299.467865,341.009827 299.898987,339.997284 300.888855,339.956024 
	C312.298645,359.988708 328.337311,376.287598 342.799316,393.771271 
	C366.574005,422.513336 390.755096,450.919220 414.855835,479.794678 
	C415.513397,480.475128 415.476074,481.155823 416.033447,481.808105 
	C416.289062,481.963928 416.047577,481.973297 416.046844,481.852448 
	C416.182831,482.108093 416.401520,482.428680 416.959686,482.839294 
	C417.217255,482.985199 417.014984,482.979462 417.019775,482.878387 
	C417.185791,483.129211 417.413635,483.431976 417.944092,483.842468 
	C418.188904,483.992798 418.009033,483.994690 418.008850,483.904755 
	C418.187408,484.143188 418.417084,484.431671 418.921509,484.841675 
	C419.152100,484.997803 418.994507,484.981689 419.003143,484.902954 
	C419.191406,485.144836 419.413666,485.431854 419.913177,485.832520 
	C420.140839,485.985199 420.006744,485.975647 420.013062,485.908752 
	C420.200470,486.158020 420.425171,486.439362 420.924591,486.828796 
	C421.155823,486.971558 421.032471,486.877533 421.082214,486.818054 
	C422.738281,489.987915 427.282562,491.074768 427.286499,495.720673 
z"/>
<path fill="#4E65CF" opacity="1.000000" stroke="none" 
	d="
M234.151520,207.727539 
	C231.863022,210.790741 229.535568,213.407227 227.568817,216.271393 
	C225.674088,219.030670 224.512070,218.697906 222.477524,216.247925 
	C207.798096,198.571228 192.964523,181.022583 178.192963,163.422333 
	C163.207611,145.567352 148.309555,127.638153 133.189117,109.898422 
	C130.678085,106.952408 130.316010,105.145866 133.724045,102.935028 
	C135.804764,101.585236 137.599609,99.794724 139.854523,98.105515 
	C143.416687,96.444534 144.679657,99.168129 146.173386,100.941605 
	C157.975632,114.954002 169.764343,128.977966 181.529755,143.021484 
	C198.214676,162.937042 214.947418,182.812546 231.601837,202.753693 
	C232.761078,204.141708 234.272018,205.331161 234.151520,207.727539 
z"/>
<path fill="#89C7FC" opacity="1.000000" stroke="none" 
	d="
M96.457321,366.621460 
	C74.516289,378.692719 60.554249,396.688507 57.047123,422.128448 
	C56.762299,424.194489 55.364483,426.220398 56.692093,428.718567 
	C50.423073,436.920166 43.916027,444.832153 37.198704,452.999786 
	C22.852854,416.495880 49.266506,368.450531 96.457321,366.621460 
z"/>
<path fill="#697CD4" opacity="1.000000" stroke="none" 
	d="
M234.340881,207.907608 
	C220.685532,192.207687 207.309174,176.373840 194.000076,160.483688 
	C182.820358,147.135849 171.965363,133.506271 160.487442,120.421791 
	C153.953278,112.973053 148.481125,104.572281 140.516251,98.051849 
	C144.593338,93.490273 144.606903,93.478889 148.462296,98.073235 
	C177.217377,132.339722 205.930969,166.641174 234.785141,200.824020 
	C237.105789,203.573288 237.483353,205.487946 234.340881,207.907608 
z"/>
<path fill="#FB4755" opacity="1.000000" stroke="none" 
	d="
M282.759216,276.316589 
	C291.729706,265.353699 300.498596,254.715332 309.598999,243.674744 
	C313.568481,248.420456 317.210114,252.929810 321.031738,257.281067 
	C323.111359,259.648865 321.444366,260.716553 319.852631,262.046570 
	C310.407349,269.938965 300.983765,277.857330 291.232880,285.881775 
	C286.565033,285.100983 283.516113,281.687042 282.759216,276.316589 
z"/>
<path fill="#4E65CF" opacity="1.000000" stroke="none" 
	d="
M110.924149,64.706833 
	C107.008690,68.504082 102.932510,71.884476 99.016708,75.441414 
	C97.309692,76.991982 96.356255,76.566002 95.051331,74.969200 
	C90.433945,69.318977 85.743927,63.725830 80.973717,58.204102 
	C79.425461,56.411919 79.506355,55.240139 81.391975,53.766956 
	C85.048088,50.910553 88.548431,47.854778 92.426559,44.743080 
	C94.483643,44.926796 95.550957,46.152569 96.617905,47.427216 
	C101.347809,53.077847 106.061501,58.742165 110.924149,64.706833 
z"/>
<path fill="#E21E2C" opacity="1.000000" stroke="none" 
	d="
M311.158051,310.246521 
	C310.899689,310.885498 310.767761,311.213684 310.532104,311.427673 
	C300.636017,320.413940 298.239594,319.999054 291.152466,308.379395 
	C290.208893,306.832336 290.556152,306.105255 291.747955,305.117310 
	C298.650452,299.395660 305.579803,293.702942 312.350708,287.828247 
	C314.284943,286.149994 315.392212,286.592590 316.717621,288.324036 
	C318.028473,290.036438 319.448578,291.665222 320.941650,293.649048 
	C321.034668,295.389465 320.423889,296.671417 319.334412,297.401581 
	C314.824951,300.423859 312.623383,304.872589 311.158051,310.246521 
z"/>
<path fill="#697CD4" opacity="1.000000" stroke="none" 
	d="
M111.332504,64.922836 
	C108.995293,64.910034 107.781708,63.468731 106.653862,62.092747 
	C102.084923,56.518593 97.604309,50.872032 92.915451,44.928364 
	C95.866371,41.869530 99.069237,39.215462 102.090080,36.368271 
	C103.821030,34.736820 104.792038,35.350307 106.062073,36.899132 
	C110.708374,42.565334 115.374596,48.219967 120.209999,53.723732 
	C121.890877,55.636951 121.517784,56.690540 119.707069,58.083427 
	C116.937843,60.213646 114.324654,62.546696 111.332504,64.922836 
z"/>
<path fill="#FA2B3A" opacity="1.000000" stroke="none" 
	d="
M282.668579,276.147705 
	C284.667023,279.791260 287.420044,282.790588 290.629517,285.827148 
	C282.316132,293.324188 273.716461,300.648346 265.125366,307.982544 
	C263.628418,309.260529 262.345490,310.163361 260.567291,308.107208 
	C258.935272,306.220093 258.271606,304.859100 260.187103,302.635834 
	C267.678772,293.940399 274.994934,285.093781 282.668579,276.147705 
z"/>
<path fill="#4E65CF" opacity="1.000000" stroke="none" 
	d="
M127.755737,70.831299 
	C128.560349,70.220688 129.374390,69.374702 129.588242,69.506035 
	C133.166046,71.703247 133.695633,75.917847 135.757599,79.139641 
	C137.201324,81.395447 134.961960,82.351151 133.676910,83.478279 
	C131.555573,85.338890 129.330109,87.080231 127.165375,88.891953 
	C119.226410,95.536270 119.313599,95.427444 111.063385,89.194862 
	C108.593903,87.329300 109.146416,86.455612 111.103577,84.853752 
	C116.628860,80.331558 122.033623,75.662109 127.755737,70.831299 
z"/>
<path fill="#FB4755" opacity="1.000000" stroke="none" 
	d="
M363.957062,300.436462 
	C361.195801,303.661163 358.136841,306.626038 354.889160,309.891357 
	C351.454193,307.706726 348.207916,305.221619 344.752472,302.576385 
	C350.967987,298.601898 357.138275,297.963928 363.957062,300.436462 
z"/>
<path fill="#FA2B3A" opacity="1.000000" stroke="none" 
	d="
M311.380829,310.394135 
	C308.746643,302.028473 315.509949,298.678070 320.764771,294.128143 
	C325.720978,298.689087 325.740234,298.712250 320.748260,302.863708 
	C317.763123,305.346252 314.706299,307.742615 311.380829,310.394135 
z"/>
<path fill="#89C7FC" opacity="1.000000" stroke="none" 
	d="
M140.004303,359.590271 
	C136.296387,359.223999 132.518372,358.802338 128.227631,358.918060 
	C130.322144,355.649139 132.878998,352.407104 135.746521,348.771210 
	C137.286285,352.588165 138.624222,355.904877 140.004303,359.590271 
z"/>
<path fill="#FB7E86" opacity="1.000000" stroke="none" 
	d="
M427.491669,496.052002 
	C425.987091,492.607025 422.307892,490.919373 421.120331,487.121185 
	C423.648560,488.600128 426.072632,490.588562 428.704163,492.247894 
	C432.370544,494.559692 429.973816,495.211151 427.491669,496.052002 
z"/>
<path fill="#FB7E86" opacity="1.000000" stroke="none" 
	d="
M416.247192,481.664307 
	C415.911560,481.534210 415.534027,481.104523 415.051666,480.398651 
	C415.366302,480.536560 415.785797,480.950623 416.247192,481.664307 
z"/>
<path fill="#8AC9FD" opacity="1.000000" stroke="none" 
	d="
M370.629761,16.269516 
	C370.342438,16.547806 369.729614,16.752171 368.784332,16.894653 
	C369.069336,16.620380 369.686768,16.407986 370.629761,16.269516 
z"/>
<path fill="#FB7E86" opacity="1.000000" stroke="none" 
	d="
M417.155548,482.671021 
	C416.923889,482.735870 416.630524,482.486511 416.191650,481.984375 
	C416.395355,481.940033 416.744598,482.148438 417.155548,482.671021 
z"/>
<path fill="#FB7E86" opacity="1.000000" stroke="none" 
	d="
M418.118286,483.689453 
	C417.896820,483.752533 417.604767,483.512268 417.168640,483.024658 
	C417.365601,482.980255 417.706635,483.183197 418.118286,483.689453 
z"/>
<path fill="#FB7E86" opacity="1.000000" stroke="none" 
	d="
M419.088074,484.699646 
	C418.867279,484.763092 418.582489,484.528381 418.153168,484.054260 
	C418.347137,484.010376 418.685608,484.205933 419.088074,484.699646 
z"/>
<path fill="#FB7E86" opacity="1.000000" stroke="none" 
	d="
M420.093353,485.684540 
	C419.851990,485.761841 419.563171,485.538452 419.143066,485.069641 
	C419.356476,485.010773 419.701172,485.197327 420.093353,485.684540 
z"/>
<path fill="#FB7E86" opacity="1.000000" stroke="none" 
	d="
M421.116028,486.666046 
	C420.859589,486.760162 420.563354,486.548737 420.143250,486.089539 
	C420.371674,486.014709 420.723969,486.187622 421.116028,486.666046 
z"/>
<path fill="#020304" opacity="1.000000" stroke="none" 
	d="
M276.703094,210.099228 
	C280.863586,209.611176 284.276337,210.228699 286.112396,214.293808 
	C287.857483,218.157578 285.986908,220.989899 283.652832,223.769684 
	C251.555817,261.995941 219.457535,300.221130 187.393814,338.475250 
	C185.145325,341.157837 182.735275,343.231384 178.581467,342.812317 
	C171.578125,338.678741 170.945679,334.729889 176.040222,328.656921 
	C207.921967,290.652161 239.821075,252.661957 271.707428,214.661057 
	C273.100037,213.001404 274.426086,211.286407 276.703094,210.099228 
z"/>
</svg>